<svg width="34" height="33" viewBox="0 0 34 33" fill="none" xmlns="http://www.w3.org/2000/svg">
<path d="M3.8559 18.9904C3.18677 18.9108 2.50044 18.8541 1.82271 18.7426C0.883519 18.5868 0.321038 17.9655 0.0853803 17.0539C-0.0283149 16.6639 -0.028463 16.2481 0.0849545 15.858C0.198372 15.4679 0.420383 15.1206 0.723547 14.8589C0.907601 14.6819 1.11574 14.5385 1.31183 14.3792C3.22117 12.8268 3.87138 10.5468 3.08012 8.18363C2.93313 7.73973 2.91641 7.26111 3.03203 6.80749C3.14766 6.35387 3.39053 5.94532 3.73033 5.63283C4.48203 4.96902 5.35413 4.88228 6.26408 5.3797C8.73074 6.72502 10.5644 8.743 12.0334 11.1416C12.4821 11.8363 12.8417 12.5877 13.1033 13.3773C13.5058 14.7261 12.8023 16.2662 11.5827 16.8963C9.80246 17.8536 7.87424 18.4855 5.88393 18.7639C5.21824 18.8435 4.54911 18.9108 3.8559 18.9904Z" fill="#FFC22C"/>
<path d="M23.486 2.31555C23.3254 3.60895 22.9776 4.87031 22.4539 6.05766C21.5546 8.08914 20.3038 9.93537 18.7625 11.5062C18.4778 11.8088 18.1371 12.0498 17.7606 12.215C17.3841 12.3801 16.9792 12.4661 16.5699 12.468C16.1606 12.4698 15.755 12.3873 15.3771 12.2255C14.9992 12.0637 14.6566 11.8258 14.3693 11.5257C12.355 9.43512 10.8276 7.01709 10.0019 4.17598C9.82689 3.55783 9.72071 2.92121 9.68541 2.27837C9.63553 1.36497 10.1189 0.708243 10.8689 0.288715C11.2168 0.0768306 11.6187 -0.0223084 12.0221 0.00421362C12.4256 0.0307357 12.8119 0.181689 13.1308 0.437408C13.9702 1.05165 14.851 1.53668 15.8934 1.69776C17.352 1.92257 18.6043 1.41631 19.7843 0.591412C20.6736 -0.0263732 21.5921 -0.10603 22.5158 0.481662C23.1609 0.894109 23.4344 1.54376 23.486 2.31555Z" fill="#FF4E5E"/>
<path d="M21.0194 18.7072C21.6679 18.8736 22.7396 19.0967 23.782 19.4312C25.9889 20.1393 28.0032 21.2226 29.6889 22.8901C30.9515 24.1398 30.7536 26.0197 29.2434 26.7455C28.8649 26.9225 28.3936 26.942 27.9636 26.9615C26.3174 27.0358 24.8674 27.5686 23.8783 28.9741C23.4653 29.6163 23.1193 30.3017 22.8462 31.0187C22.4454 31.9622 21.6421 32.6207 20.6823 32.6118C19.7225 32.603 19.0723 32.0967 18.668 31.2081C17.433 28.4944 17.0494 25.6427 17.3539 22.6812C17.4209 22.028 17.4743 21.3536 17.6824 20.734C18.1176 19.4471 19.2684 18.6966 21.0194 18.7072Z" fill="black"/>
<path d="M29.202 18.9904C26.4498 18.9037 23.8851 18.1213 21.4615 16.8663C20.0853 16.1582 19.4781 14.2535 20.1903 12.7949C21.7264 9.66702 23.8301 7.05072 26.8988 5.37792C28.3282 4.59728 29.983 5.43103 30.1945 7.08258C30.253 7.53574 30.0999 8.0367 29.9761 8.49871C29.3517 10.7999 29.9296 12.7205 31.6859 14.273C31.981 14.5081 32.2576 14.7667 32.5133 15.0465C33.5264 16.2856 33.0758 18.5178 31.2043 18.7639C30.5386 18.8488 29.8694 18.9143 29.202 18.9904Z" fill="#1953DB"/>
<path d="M15.866 24.1434C15.8281 26.6782 15.4841 28.9511 14.5139 31.0948C13.7158 32.8526 11.6224 33.1995 10.6075 31.7037C10.3185 31.2771 10.1826 30.7425 9.97967 30.2575C9.08349 28.1227 7.46313 27.0836 5.24588 26.9774C4.48903 26.9402 3.78034 26.811 3.23505 26.2162C2.34403 25.2426 2.41283 23.8743 3.40707 22.9007C4.36056 21.9656 5.44266 21.1801 6.61854 20.5694C8.29979 19.6673 10.1143 19.0573 11.9888 18.7639C14.0134 18.4629 15.5064 19.7304 15.7163 21.8298C15.8006 22.6582 15.8281 23.499 15.866 24.1434Z" fill="#3E3A48"/>
</svg>
