<svg width="121" height="30" viewBox="0 0 121 30" fill="none" xmlns="http://www.w3.org/2000/svg">
<path d="M51.0236 24.4158L45.7841 17.0204C45.7655 16.9944 45.7401 16.9728 45.7101 16.9577C45.6802 16.9426 45.6465 16.9343 45.6121 16.9337H43.2315C43.2132 16.9328 43.1949 16.9354 43.1779 16.9413C43.1608 16.9472 43.1453 16.9563 43.1325 16.968C43.1196 16.9797 43.1097 16.9938 43.1033 17.0092C43.097 17.0246 43.0943 17.0411 43.0956 17.0575V24.3787C43.0966 24.3952 43.0937 24.4117 43.0871 24.4271C43.0806 24.4425 43.0705 24.4566 43.0575 24.4682C43.0445 24.4799 43.0289 24.489 43.0118 24.4949C42.9946 24.5008 42.9763 24.5034 42.958 24.5025H39.9804C39.9622 24.5034 39.9439 24.5009 39.9268 24.4949C39.9098 24.489 39.8943 24.4799 39.8815 24.4682C39.8686 24.4565 39.8587 24.4424 39.8523 24.427C39.8459 24.4116 39.8433 24.3951 39.8445 24.3787V6.92187C39.8435 6.90557 39.8464 6.88927 39.8529 6.87403C39.8593 6.85879 39.8693 6.84494 39.8821 6.8334C39.895 6.82186 39.9103 6.81288 39.9273 6.80705C39.9442 6.80122 39.9623 6.79867 39.9804 6.79957H42.958C42.9762 6.79844 42.9945 6.80083 43.0117 6.80655C43.0288 6.81228 43.0444 6.82123 43.0574 6.83279C43.0704 6.84436 43.0806 6.85828 43.0871 6.87364C43.0937 6.889 43.0966 6.90544 43.0956 6.92187V14.2554C43.0943 14.2718 43.097 14.2883 43.1033 14.3037C43.1097 14.3192 43.1196 14.3332 43.1325 14.3449C43.1453 14.3566 43.1608 14.3657 43.1779 14.3717C43.1949 14.3776 43.2132 14.3802 43.2315 14.3793H45.6396C45.674 14.3786 45.7077 14.3703 45.7377 14.3552C45.7677 14.3401 45.7931 14.3186 45.8117 14.2926L50.9136 6.88472C50.9322 6.85888 50.9577 6.8376 50.9877 6.82274C51.0177 6.80789 51.0513 6.79993 51.0856 6.79957H54.5138C54.6239 6.79957 54.6514 6.85995 54.5964 6.95438L48.5191 15.4846C48.4999 15.5102 48.4896 15.5404 48.4896 15.5713C48.4896 15.6022 48.4999 15.6324 48.5191 15.658L54.7684 24.3601C54.8234 24.4468 54.7959 24.5149 54.6858 24.5149H51.1871C51.1528 24.512 51.1199 24.5014 51.0914 24.4841C51.0628 24.4668 51.0395 24.4433 51.0236 24.4158Z" fill="black"/>
<path d="M53.688 18.231C53.688 14.2802 56.4402 11.7366 60.6975 11.7366C64.9548 11.7366 67.6933 14.2802 67.6933 18.2388C67.6933 22.1974 64.9497 24.7564 60.6975 24.7564C56.4454 24.7564 53.688 22.1927 53.688 18.231ZM64.5798 18.231C64.5798 15.7122 63.0713 14.082 60.6975 14.082C58.3237 14.082 56.8014 15.7122 56.8014 18.231C56.8014 20.7498 58.3375 22.411 60.6975 22.411C63.0575 22.411 64.5798 20.7607 64.5798 18.231Z" fill="black"/>
<path d="M68.5345 24.3787V6.92188C68.5332 6.90552 68.5359 6.88911 68.5422 6.87375C68.5486 6.85839 68.5586 6.84444 68.5715 6.83285C68.5843 6.82125 68.5998 6.81228 68.6169 6.80654C68.634 6.8008 68.6522 6.79843 68.6704 6.79957H71.5241C71.5423 6.79845 71.5606 6.80083 71.5778 6.80656C71.5949 6.81229 71.6105 6.82123 71.6235 6.8328C71.6365 6.84436 71.6467 6.85829 71.6532 6.87364C71.6598 6.889 71.6627 6.90544 71.6617 6.92188V24.3787C71.6627 24.3952 71.6598 24.4117 71.6532 24.4271C71.6467 24.4426 71.6366 24.4566 71.6236 24.4683C71.6106 24.4799 71.595 24.489 71.5779 24.4949C71.5607 24.5008 71.5424 24.5034 71.5241 24.5025H68.6704C68.6521 24.5035 68.6339 24.5009 68.6168 24.495C68.5997 24.489 68.5843 24.4799 68.5714 24.4682C68.5586 24.4565 68.5486 24.4424 68.5423 24.427C68.5359 24.4116 68.5332 24.3951 68.5345 24.3787Z" fill="black"/>
<path d="M73.1084 24.3787V6.92187C73.1073 6.90544 73.1102 6.889 73.1168 6.87364C73.1234 6.85828 73.1335 6.84436 73.1465 6.83279C73.1595 6.82123 73.1751 6.81228 73.1923 6.80655C73.2094 6.80083 73.2277 6.79844 73.246 6.79957H76.0979C76.1162 6.79844 76.1345 6.80083 76.1516 6.80655C76.1688 6.81228 76.1844 6.82123 76.1974 6.83279C76.2104 6.84436 76.2205 6.85828 76.2271 6.87364C76.2337 6.889 76.2366 6.90544 76.2355 6.92187V24.3787C76.2365 24.3952 76.2337 24.4117 76.2271 24.4271C76.2205 24.4425 76.2104 24.4566 76.1974 24.4682C76.1845 24.4799 76.1689 24.489 76.1517 24.4949C76.1346 24.5008 76.1163 24.5034 76.0979 24.5025H73.2442C73.2261 24.5032 73.2079 24.5004 73.191 24.4944C73.174 24.4884 73.1587 24.4793 73.1459 24.4676C73.1331 24.456 73.1231 24.442 73.1167 24.4267C73.1102 24.4114 73.1074 24.395 73.1084 24.3787Z" fill="black"/>
<path d="M77.376 20.7359C77.376 18.3533 79.2561 16.7495 82.7669 16.7495H87.1704C87.1887 16.7503 87.207 16.7478 87.2242 16.7419C87.2413 16.7359 87.2569 16.7269 87.2699 16.7152C87.2829 16.7035 87.293 16.6895 87.2995 16.674C87.3061 16.6586 87.309 16.6421 87.308 16.6256V16.4151C87.308 14.8112 86.2381 13.9473 84.1946 13.9473C82.3833 13.9473 81.3409 14.6254 81.0657 15.9104C81.0602 15.9421 81.0419 15.9708 81.0142 15.9911C80.9866 16.0114 80.9516 16.0218 80.916 16.0203H78.0348C78.0152 16.022 77.9954 16.0196 77.977 16.0133C77.9585 16.007 77.942 15.9969 77.9287 15.9838C77.9153 15.9708 77.9055 15.9551 77.9001 15.938C77.8946 15.921 77.8936 15.903 77.8972 15.8856C78.3375 13.2305 80.5324 11.7366 84.2358 11.7366C88.144 11.7366 90.4283 13.5634 90.4283 16.4398V21.7283C90.4283 22.0998 90.621 22.2717 91.0321 22.2717H91.6358C91.6541 22.2708 91.6724 22.2733 91.6894 22.2793C91.7065 22.2852 91.722 22.2943 91.7348 22.306C91.7477 22.3177 91.7576 22.3318 91.764 22.3472C91.7703 22.3626 91.773 22.3791 91.7717 22.3955V24.3833C91.773 24.3997 91.7703 24.4162 91.764 24.4317C91.7576 24.4471 91.7477 24.4611 91.7348 24.4728C91.722 24.4845 91.7065 24.4937 91.6894 24.4996C91.6724 24.5055 91.6541 24.5081 91.6358 24.5072H89.8865C88.8716 24.5072 88.1663 24.2099 87.843 23.5566C87.8017 23.4699 87.7466 23.4452 87.6709 23.5071C86.6285 24.4453 84.8861 24.7456 83.1866 24.7456C79.4883 24.7487 77.376 23.2547 77.376 20.7359ZM87.3527 19.3658V19.1197C87.3537 19.1032 87.3508 19.0867 87.3443 19.0712C87.3377 19.0558 87.3276 19.0418 87.3146 19.0301C87.3016 19.0184 87.2861 19.0093 87.2689 19.0034C87.2518 18.9975 87.2334 18.9949 87.2151 18.9958H83.1556C81.303 18.9958 80.5221 19.564 80.5221 20.6632C80.5221 21.8846 81.537 22.6014 83.5392 22.6014C85.8682 22.6014 87.3493 21.6137 87.3493 19.3658H87.3527Z" fill="black"/>
<path d="M95.8569 23.3414C95.7881 23.2671 95.7055 23.2919 95.6849 23.3786L95.3409 24.4035C95.3319 24.433 95.312 24.4589 95.2845 24.4769C95.257 24.4949 95.2235 24.504 95.1895 24.5025H92.6747C92.6563 24.5034 92.638 24.5008 92.6209 24.4949C92.6037 24.489 92.5881 24.4799 92.5752 24.4682C92.5622 24.4566 92.5521 24.4425 92.5455 24.4271C92.539 24.4117 92.5361 24.3952 92.5371 24.3787V6.92187C92.536 6.90544 92.5389 6.889 92.5455 6.87364C92.5521 6.85828 92.5622 6.84436 92.5752 6.83279C92.5882 6.82123 92.6038 6.81228 92.621 6.80655C92.6381 6.80083 92.6564 6.79844 92.6747 6.79957H95.5008C95.5191 6.79844 95.5374 6.80083 95.5545 6.80655C95.5717 6.81228 95.5873 6.82123 95.6003 6.83279C95.6133 6.84436 95.6234 6.85828 95.63 6.87364C95.6366 6.889 95.6395 6.90544 95.6384 6.92187V12.9225C95.6384 13.0215 95.7193 13.0587 95.8019 12.9844C96.7892 12.1809 98.2444 11.7366 99.8218 11.7366C103.716 11.7366 106.501 14.1811 106.501 18.2558C106.501 22.3537 103.702 24.7487 99.9302 24.7487C98.2995 24.7487 96.803 24.2548 95.8569 23.3414ZM103.382 18.2558C103.382 15.7246 101.834 14.0758 99.4451 14.0758C97.0558 14.0758 95.4888 15.7184 95.4888 18.2558C95.4888 20.7607 97.0369 22.4033 99.4451 22.4033C101.853 22.4033 103.382 20.7607 103.382 18.2558Z" fill="black"/>
<path d="M106.995 18.231C106.995 14.2802 109.747 11.7366 114.004 11.7366C118.262 11.7366 121 14.2802 121 18.2388C121 22.1974 118.248 24.7564 114.004 24.7564C109.761 24.7564 106.995 22.1927 106.995 18.231ZM117.887 18.231C117.887 15.7122 116.378 14.082 114.004 14.082C111.631 14.082 110.11 15.7122 110.11 18.231C110.11 20.7498 111.646 22.411 114.004 22.411C116.363 22.411 117.89 20.7607 117.89 18.231H117.887Z" fill="black"/>
<path d="M3.8559 17.5916C3.18677 17.522 2.50044 17.4724 1.82271 17.3749C0.883519 17.2387 0.321038 16.6953 0.0853803 15.898C-0.0283149 15.5569 -0.028463 15.1933 0.0849545 14.8521C0.198372 14.5109 0.420383 14.2071 0.723547 13.9783C0.907601 13.8235 1.11574 13.6981 1.31183 13.5587C3.22117 12.201 3.87138 10.207 3.08012 8.14026C2.93313 7.75203 2.91641 7.33344 3.03203 6.93672C3.14766 6.53999 3.39053 6.18269 3.73033 5.90939C4.48203 5.32884 5.35413 5.25298 6.26408 5.68801C8.73074 6.86459 10.5644 8.62947 12.0334 10.7272C12.4821 11.3348 12.8417 11.992 13.1033 12.6825C13.5058 13.8622 12.8023 15.2091 11.5827 15.7602C9.80246 16.5974 7.87424 17.15 5.88393 17.3935C5.21824 17.4631 4.54911 17.522 3.8559 17.5916Z" fill="#FFC22C"/>
<path d="M23.486 3.00817C23.3254 4.13935 22.9776 5.24251 22.4539 6.28094C21.5546 8.05762 20.3038 9.67229 18.7625 11.0461C18.4778 11.3108 18.1371 11.5215 17.7606 11.666C17.3841 11.8104 16.9792 11.8856 16.5699 11.8872C16.1606 11.8888 15.755 11.8167 15.3771 11.6752C14.9992 11.5337 14.6566 11.3256 14.3693 11.0631C12.355 9.23479 10.8276 7.12003 10.0019 4.63527C9.82689 4.09465 9.72071 3.53787 9.68541 2.97566C9.63553 2.17682 10.1189 1.60246 10.8689 1.23555C11.2168 1.05025 11.6187 0.963541 12.0221 0.986736C12.4256 1.00993 12.8119 1.14195 13.1308 1.3656C13.9702 1.9028 14.851 2.32699 15.8934 2.46787C17.352 2.66449 18.6043 2.22172 19.7843 1.50029C20.6736 0.959986 21.5921 0.89032 22.5158 1.4043C23.1609 1.76502 23.4344 2.33318 23.486 3.00817Z" fill="#FF4E5E"/>
<path d="M21.0193 17.3439C21.6678 17.4895 22.7395 17.6845 23.7818 17.9771C25.9888 18.5964 28.003 19.5438 29.6888 21.0022C30.9513 22.0952 30.7535 23.7393 29.2433 24.374C28.8648 24.5288 28.3935 24.5459 27.9635 24.5629C26.3173 24.6279 24.8672 25.0939 23.8782 26.3231C23.4651 26.8848 23.1192 27.4842 22.8461 28.1112C22.4453 28.9364 21.642 29.5123 20.6822 29.5046C19.7223 29.4968 19.0721 29.0541 18.6679 28.2769C17.4329 25.9036 17.0493 23.4095 17.3537 20.8195C17.4208 20.2482 17.4741 19.6584 17.6823 19.1166C18.1175 17.9911 19.2682 17.3346 21.0193 17.3439Z" fill="black"/>
<path d="M29.202 17.5916C26.4498 17.5158 23.8851 16.8315 21.4615 15.7339C20.0853 15.1146 19.4781 13.4488 20.1903 12.1732C21.7264 9.43759 23.8301 7.14944 26.8988 5.68645C28.3282 5.00372 29.983 5.7329 30.1945 7.17731C30.253 7.57363 30.0999 8.01176 29.9761 8.41582C29.3517 10.4284 29.9296 12.1081 31.6859 13.4658C31.981 13.6715 32.2576 13.8977 32.5133 14.1424C33.5264 15.2261 33.0758 17.1783 31.2043 17.3935C30.5386 17.4678 29.8694 17.5251 29.202 17.5916Z" fill="#1953DB"/>
<path d="M15.8658 22.0983C15.828 24.3152 15.484 26.303 14.5138 28.1778C13.7157 29.7151 11.6223 30.0186 10.6074 28.7104C10.3184 28.3373 10.1825 27.8697 9.97955 27.4455C9.08337 25.5785 7.46301 24.6697 5.24576 24.5768C4.48891 24.5443 3.78021 24.4313 3.23493 23.9111C2.34391 23.0597 2.41271 21.863 3.40695 21.0115C4.36044 20.1937 5.44254 19.5067 6.61842 18.9726C8.29967 18.1836 10.1142 17.6501 11.9887 17.3935C14.0133 17.1303 15.5063 18.2388 15.7162 20.0749C15.8005 20.7994 15.828 21.5348 15.8658 22.0983Z" fill="#3E3A48"/>
</svg>
