<svg width="12" height="12" viewBox="0 0 12 12" fill="none" xmlns="http://www.w3.org/2000/svg">
<path d="M6 4.512C5.7057 4.512 5.41801 4.59927 5.17331 4.76277C4.92861 4.92628 4.73789 5.15867 4.62527 5.43057C4.51264 5.70246 4.48318 6.00165 4.54059 6.29029C4.59801 6.57894 4.73972 6.84407 4.94783 7.05218C5.15593 7.26028 5.42106 7.40199 5.70971 7.45941C5.99835 7.51682 6.29754 7.48736 6.56943 7.37473C6.84133 7.26211 7.07372 7.07139 7.23723 6.82669C7.40073 6.58199 7.488 6.2943 7.488 6C7.488 5.80459 7.44951 5.6111 7.37473 5.43057C7.29995 5.25003 7.19035 5.086 7.05218 4.94783C6.914 4.80965 6.74997 4.70005 6.56943 4.62527C6.3889 4.55049 6.19541 4.512 6 4.512ZM11.958 3.042C11.9548 2.57866 11.8695 2.11954 11.706 1.686C11.5856 1.36876 11.3992 1.08066 11.1593 0.840711C10.9193 0.600766 10.6312 0.414431 10.314 0.294C9.88046 0.130478 9.42135 0.0451565 8.958 0.042C8.184 -4.02331e-08 7.956 0 6 0C4.044 0 3.816 -4.02331e-08 3.042 0.042C2.57866 0.0451565 2.11954 0.130478 1.686 0.294C1.36876 0.414431 1.08066 0.600766 0.840711 0.840711C0.600766 1.08066 0.414431 1.36876 0.294 1.686C0.130478 2.11954 0.0451565 2.57866 0.042 3.042C-4.02331e-08 3.816 0 4.044 0 6C0 7.956 -4.02331e-08 8.184 0.042 8.958C0.0484583 9.42298 0.133665 9.8835 0.294 10.32C0.413897 10.6358 0.600077 10.9222 0.84 11.16C1.07892 11.4014 1.36763 11.5877 1.686 11.706C2.11954 11.8695 2.57866 11.9548 3.042 11.958C3.816 12 4.044 12 6 12C7.956 12 8.184 12 8.958 11.958C9.42135 11.9548 9.88046 11.8695 10.314 11.706C10.6324 11.5877 10.9211 11.4014 11.16 11.16C11.3999 10.9222 11.5861 10.6358 11.706 10.32C11.8694 9.88433 11.9547 9.42328 11.958 8.958C12 8.184 12 7.956 12 6C12 4.044 12 3.816 11.958 3.042ZM10.434 7.842C10.4147 8.21226 10.3357 8.57697 10.2 8.922C10.0835 9.20981 9.91036 9.47126 9.69081 9.69081C9.47126 9.91036 9.20981 10.0835 8.922 10.2C8.57371 10.3282 8.20696 10.3991 7.836 10.41C7.362 10.41 7.236 10.41 6 10.41C4.764 10.41 4.638 10.41 4.164 10.41C3.79304 10.3991 3.42629 10.3282 3.078 10.2C2.78046 10.0894 2.51177 9.91304 2.292 9.684C2.0746 9.46875 1.90671 9.20872 1.8 8.922C1.67133 8.57407 1.60236 8.20691 1.596 7.836C1.596 7.362 1.596 7.236 1.596 6C1.596 4.764 1.596 4.638 1.596 4.164C1.60236 3.7931 1.67133 3.42593 1.8 3.078C1.91057 2.78046 2.08696 2.51177 2.316 2.292C2.5322 2.07577 2.79196 1.90806 3.078 1.8C3.42629 1.67184 3.79304 1.60093 4.164 1.59C4.638 1.59 4.764 1.59 6 1.59C7.236 1.59 7.362 1.59 7.836 1.59C8.20696 1.60093 8.57371 1.67184 8.922 1.8C9.21954 1.91057 9.48823 2.08696 9.708 2.316C9.9254 2.53125 10.0933 2.79128 10.2 3.078C10.3282 3.42629 10.3991 3.79304 10.41 4.164C10.41 4.638 10.41 4.764 10.41 6C10.41 7.236 10.452 7.362 10.434 7.836V7.842ZM9.474 3.378C9.40256 3.18419 9.28993 3.00819 9.14387 2.86213C8.99782 2.71607 8.82181 2.60344 8.628 2.532C8.36188 2.43976 8.08161 2.39507 7.8 2.4C7.332 2.4 7.2 2.4 6 2.4C4.8 2.4 4.668 2.4 4.2 2.4C3.91696 2.40277 3.63664 2.45558 3.372 2.556C3.18116 2.62419 3.00702 2.73223 2.86115 2.87292C2.71528 3.01361 2.60104 3.18374 2.526 3.372C2.43887 3.63922 2.3963 3.91896 2.4 4.2C2.4 4.668 2.4 4.8 2.4 6C2.4 7.2 2.4 7.332 2.4 7.8C2.40595 8.08272 2.45866 8.3625 2.556 8.628C2.62744 8.82181 2.74007 8.99782 2.88613 9.14387C3.03219 9.28993 3.20819 9.40256 3.402 9.474C3.658 9.56815 3.92739 9.62081 4.2 9.63C4.668 9.63 4.8 9.63 6 9.63C7.2 9.63 7.332 9.63 7.8 9.63C8.08304 9.62723 8.36336 9.57442 8.628 9.474C8.82181 9.40256 8.99782 9.28993 9.14387 9.14387C9.28993 8.99782 9.40256 8.82181 9.474 8.628C9.57442 8.36336 9.62723 8.08304 9.63 7.8C9.63 7.332 9.63 7.2 9.63 6C9.63 4.8 9.63 4.668 9.63 4.2C9.63017 3.91668 9.57726 3.63583 9.474 3.372V3.378ZM6 8.292C5.69929 8.292 5.40154 8.23267 5.1238 8.11742C4.84606 8.00216 4.59378 7.83324 4.38143 7.62033C4.16908 7.40742 4.00082 7.1547 3.88629 6.87666C3.77176 6.59861 3.71321 6.30071 3.714 6C3.714 5.54643 3.84858 5.10306 4.10069 4.72601C4.35281 4.34897 4.71112 4.0552 5.13028 3.8819C5.54944 3.7086 6.01059 3.66356 6.45536 3.75249C6.90013 3.84141 7.30851 4.0603 7.62881 4.38144C7.94911 4.70259 8.16693 5.11154 8.25469 5.55654C8.34245 6.00154 8.2962 6.46257 8.12181 6.88128C7.94741 7.29998 7.6527 7.65752 7.275 7.90865C6.89729 8.15977 6.45357 8.29319 6 8.292ZM8.4 4.158C8.26737 4.14396 8.14462 4.08133 8.05541 3.98218C7.9662 3.88303 7.91684 3.75438 7.91684 3.621C7.91684 3.48762 7.9662 3.35897 8.05541 3.25982C8.14462 3.16067 8.26737 3.09804 8.4 3.084C8.53263 3.09804 8.65538 3.16067 8.74459 3.25982C8.8338 3.35897 8.88316 3.48762 8.88316 3.621C8.88316 3.75438 8.8338 3.88303 8.74459 3.98218C8.65538 4.08133 8.53263 4.14396 8.4 4.158Z" fill="#EBEBEB" fill-opacity="0.5"/>
</svg>
